<svg xmlns:dc="http://purl.org/dc/elements/1.1/" xmlns:cc="http://creativecommons.org/ns#" xmlns:rdf="http://www.w3.org/1999/02/22-rdf-syntax-ns#" xmlns:svg="http://www.w3.org/2000/svg" xmlns="http://www.w3.org/2000/svg" xmlns:sodipodi="http://sodipodi.sourceforge.net/DTD/sodipodi-0.dtd" xmlns:inkscape="http://www.inkscape.org/namespaces/inkscape" version="1.1" x="0px" y="0px" viewBox="0 0 60 75"><g transform="translate(0,-992.3622)"><path d="m 12.249264,1023.0519 16.0002,17 c 0.3873,0.4042 1.0492,0.4071 1.4221,0.047 0.379,-0.3659 0.4068,-1.0376 0.047,-1.4221 l -14.4064,-15.3125 31.6877,0 c 0.5523,0 1,-0.4477 1,-1 0,-0.5523 -0.4477,-1 -1,-1 l -31.6877,0 14.4064,-15.3125 c 0.3601,-0.3845 0.3379,-1.0621 -0.047,-1.4221 -0.3846,-0.36 -1.0035,-0.3689 -1.4221,0.047 l -16.0002,17 c -0.3803,0.468 -0.2803,1.0416 0,1.3752 z" style="text-indent:0;text-transform:none;direction:ltr;block-progression:tb;baseline-shift:baseline;color:#000000;enable-background:accumulate;" fill="#000000" fill-opacity="1" fill-rule="nonzero" stroke="none" marker="none" visibility="visible" display="inline" overflow="visible"/></g></svg>
