<svg xmlns="http://www.w3.org/2000/svg" xmlns:xlink="http://www.w3.org/1999/xlink" version="1.1" x="0px" y="0px" viewBox="0 0 100 125" enable-background="new 0 0 100 100" xml:space="preserve"><path fill="#F1F1F1" d="M78.896,84.572c-0.007,0-0.014,0-0.021,0c-0.442,0-0.886-0.139-1.259-0.418L65.932,75.42h-8.654  c-7.214,0-13.083-5.869-13.083-13.082V49.159c0-7.214,5.869-13.084,13.083-13.084h28.187c7.214,0,13.084,5.87,13.084,13.084v13.179  c0,7.213-5.87,13.082-13.084,13.082h-6.798l2.104,6.096c0.146,0.287,0.229,0.611,0.229,0.955  C80.999,83.632,80.058,84.572,78.896,84.572z M57.277,40.278c-4.896,0-8.879,3.984-8.879,8.88v13.179  c0,4.896,3.983,8.879,8.879,8.879h9.353c0.454,0,0.896,0.146,1.259,0.418l6.77,5.06l-0.93-2.689  c-0.221-0.643-0.119-1.353,0.275-1.906s1.032-0.882,1.712-0.882h9.748c4.896,0,8.88-3.983,8.88-8.879V49.159  c0-4.896-3.983-8.88-8.88-8.88H57.277z"/><path fill="#F1F1F1" d="M21.023,64.697c-0.435,0-0.871-0.135-1.24-0.404c-0.745-0.545-1.048-1.512-0.748-2.385l2.324-6.729h-7.11  c-7.214,0-13.084-5.87-13.084-13.084V28.917c0-7.214,5.87-13.084,13.084-13.084h28.187c7.214,0,13.083,5.87,13.083,13.084v2.562  c0,1.161-0.941,2.102-2.103,2.102c-1.16,0-2.102-0.941-2.102-2.102v-2.562c0-4.896-3.983-8.88-8.879-8.88H14.25  c-4.896,0-8.88,3.984-8.88,8.88v13.178c0,4.896,3.984,8.88,8.88,8.88h10.06c0.68,0,1.317,0.329,1.712,0.881  c0.394,0.555,0.497,1.264,0.275,1.906l-1.055,3.055l7.26-5.424c0.363-0.271,0.805-0.418,1.258-0.418h5.44  c1.161,0,2.102,0.941,2.102,2.102c0,1.16-0.941,2.102-2.102,2.102h-4.742l-12.177,9.1C21.909,64.557,21.466,64.697,21.023,64.697z"/></svg>
